G04*
G04 #@! TF.GenerationSoftware,Altium Limited,Altium Designer,21.2.0 (30)*
G04*
G04 Layer_Color=65535*
%FSLAX25Y25*%
%MOIN*%
G70*
G04*
G04 #@! TF.SameCoordinates,9EB53224-002F-4CA6-BEF0-4101847B7537*
G04*
G04*
G04 #@! TF.FilePolarity,Positive*
G04*
G01*
G75*
%ADD10C,0.01181*%
%ADD11C,0.00600*%
%ADD12C,0.00500*%
%ADD13C,0.01000*%
%ADD14C,0.01575*%
%ADD15C,0.00787*%
%ADD16C,0.00591*%
%ADD17C,0.00394*%
D10*
X323079Y384535D02*
G03*
X323079Y384535I-394J0D01*
G01*
D11*
X346700Y412700D02*
G03*
X344300Y412700I-1200J0D01*
G01*
X356500D02*
Y415600D01*
X346700Y412700D02*
X356500D01*
X344300D02*
X346700D01*
X334500D02*
X344300D01*
X334500Y435400D02*
Y438300D01*
X356500D01*
Y435400D02*
Y438300D01*
X334500Y412700D02*
Y415600D01*
X495200Y399300D02*
Y411700D01*
X482800Y399300D02*
Y411700D01*
D12*
X326622Y408551D02*
X342370D01*
X356543Y384339D02*
Y401661D01*
X326622Y377449D02*
X342370D01*
X326622D02*
Y385520D01*
Y400480D02*
Y408551D01*
X403394Y430362D02*
Y462370D01*
X403276Y462331D02*
X403394Y462370D01*
X399457D02*
X403394D01*
X399457D02*
Y463551D01*
X456543D01*
Y462370D02*
Y463551D01*
X452606Y462370D02*
X456543D01*
X452606Y430441D02*
Y462370D01*
X403394Y407842D02*
Y415638D01*
Y407842D02*
X452606D01*
Y415323D01*
D13*
X440547Y400055D02*
Y401630D01*
X440500Y393362D02*
Y401630D01*
X412500Y393362D02*
Y401630D01*
Y393362D02*
X440500D01*
X412500Y401630D02*
X440500D01*
X383370Y428500D02*
Y456500D01*
X391638Y428500D02*
Y456500D01*
X383370Y428500D02*
X391638D01*
X383370Y456500D02*
X391638D01*
X383370Y456547D02*
X384945D01*
X440547Y385055D02*
Y386630D01*
X440500Y378362D02*
Y386630D01*
X412500Y378362D02*
Y386630D01*
Y378362D02*
X440500D01*
X412500Y386630D02*
X440500D01*
X443157Y422724D02*
X441491D01*
X442324D01*
Y417726D01*
X443157Y418559D01*
X387552Y407850D02*
X391550Y411849D01*
Y407850D02*
X387552Y411849D01*
X389551Y407850D02*
Y411849D01*
X391550Y409849D02*
X387552D01*
D14*
X320425Y426642D02*
X323575D01*
X351654Y446508D02*
Y457492D01*
X313425Y426642D02*
X316575D01*
D15*
X354449Y456882D02*
Y457512D01*
X372165Y456882D02*
Y457512D01*
X354449Y446488D02*
Y447118D01*
X372165Y446488D02*
Y447118D01*
X354449Y457512D02*
X372165D01*
X354449Y446488D02*
X372165D01*
X473669Y405559D02*
X474063D01*
X473669Y400441D02*
X474063D01*
X498937Y379532D02*
X499331D01*
X498937Y384650D02*
X499331D01*
X498937Y395059D02*
X499331D01*
X498937Y389941D02*
X499331D01*
D16*
X318728Y412213D02*
Y413787D01*
X480165Y412815D02*
Y415177D01*
X475835Y412815D02*
Y415177D01*
X470776Y386665D02*
X473138D01*
X470776Y382335D02*
X473138D01*
X500772Y409213D02*
Y410787D01*
X486272Y388713D02*
Y390287D01*
X353091Y382902D02*
X355714D01*
X354402Y384214D02*
Y381591D01*
X379591Y456402D02*
X382214D01*
X380902Y457714D02*
Y455091D01*
X437591Y389902D02*
X440214D01*
X438903Y391214D02*
Y388591D01*
D17*
X327163Y444623D02*
Y447377D01*
X328541D01*
X329000Y446918D01*
Y446000D01*
X328541Y445541D01*
X327163D01*
X328082D02*
X329000Y444623D01*
X329918D02*
X330837D01*
X330378D01*
Y447377D01*
X329918Y446918D01*
X401408Y398016D02*
Y399984D01*
X402392D01*
X402720Y399656D01*
Y399000D01*
X402392Y398672D01*
X401408D01*
X406328Y399984D02*
X405672D01*
X405344Y399656D01*
Y398344D01*
X405672Y398016D01*
X406328D01*
X406656Y398344D01*
Y399656D01*
X406328Y399984D01*
X407312D02*
Y398344D01*
X407640Y398016D01*
X408296D01*
X408624Y398344D01*
Y399984D01*
X409280D02*
X410592D01*
X409936D01*
Y398016D01*
X479169Y445878D02*
X481005D01*
X480087D01*
Y443122D01*
X481924D02*
Y445878D01*
X483301D01*
X483760Y445418D01*
Y444500D01*
X483301Y444041D01*
X481924D01*
X486515Y445418D02*
X486056Y445878D01*
X485138D01*
X484679Y445418D01*
Y444959D01*
X485138Y444500D01*
X486056D01*
X486515Y444041D01*
Y443582D01*
X486056Y443122D01*
X485138D01*
X484679Y443582D01*
X489270Y445878D02*
X488352Y445418D01*
X487434Y444500D01*
Y443582D01*
X487893Y443122D01*
X488811D01*
X489270Y443582D01*
Y444041D01*
X488811Y444500D01*
X487434D01*
X490189Y443122D02*
X491107D01*
X490648D01*
Y445878D01*
X490189Y445418D01*
X494321Y443122D02*
X492485D01*
X494321Y444959D01*
Y445418D01*
X493862Y445878D01*
X492944D01*
X492485Y445418D01*
X495240D02*
X495699Y445878D01*
X496617D01*
X497076Y445418D01*
Y443582D01*
X496617Y443122D01*
X495699D01*
X495240Y443582D01*
Y445418D01*
X497995D02*
X498454Y445878D01*
X499372D01*
X499831Y445418D01*
Y443582D01*
X499372Y443122D01*
X498454D01*
X497995Y443582D01*
Y445418D01*
X341515Y454918D02*
X341056Y455377D01*
X340138D01*
X339679Y454918D01*
Y454459D01*
X340138Y454000D01*
X341056D01*
X341515Y453541D01*
Y453082D01*
X341056Y452623D01*
X340138D01*
X339679Y453082D01*
X344270Y454918D02*
X343811Y455377D01*
X342893D01*
X342434Y454918D01*
Y454459D01*
X342893Y454000D01*
X343811D01*
X344270Y453541D01*
Y453082D01*
X343811Y452623D01*
X342893D01*
X342434Y453082D01*
X345189Y452623D02*
X346107D01*
X345648D01*
Y455377D01*
X345189Y454918D01*
X348862Y452623D02*
Y455377D01*
X347485Y454000D01*
X349321D01*
X466204Y415623D02*
Y418377D01*
X467582D01*
X468041Y417918D01*
Y417000D01*
X467582Y416541D01*
X466204D01*
X467123D02*
X468041Y415623D01*
X470796Y418377D02*
X469877Y417918D01*
X468959Y417000D01*
Y416082D01*
X469418Y415623D01*
X470337D01*
X470796Y416082D01*
Y416541D01*
X470337Y417000D01*
X468959D01*
X474204Y390622D02*
Y393377D01*
X475582D01*
X476041Y392918D01*
Y392000D01*
X475582Y391541D01*
X474204D01*
X475122D02*
X476041Y390622D01*
X478796Y393377D02*
X476959D01*
Y392000D01*
X477878Y392459D01*
X478337D01*
X478796Y392000D01*
Y391082D01*
X478337Y390622D01*
X477418D01*
X476959Y391082D01*
X508204Y391123D02*
Y393878D01*
X509582D01*
X510041Y393418D01*
Y392500D01*
X509582Y392041D01*
X508204D01*
X509123D02*
X510041Y391123D01*
X512337D02*
Y393878D01*
X510959Y392500D01*
X512796D01*
X508204Y380122D02*
Y382877D01*
X509582D01*
X510041Y382418D01*
Y381500D01*
X509582Y381041D01*
X508204D01*
X509123D02*
X510041Y380122D01*
X510959Y382418D02*
X511418Y382877D01*
X512337D01*
X512796Y382418D01*
Y381959D01*
X512337Y381500D01*
X511877D01*
X512337D01*
X512796Y381041D01*
Y380582D01*
X512337Y380122D01*
X511418D01*
X510959Y380582D01*
X376141Y421623D02*
Y424377D01*
X377519D01*
X377978Y423918D01*
Y423000D01*
X377519Y422541D01*
X376141D01*
X377060D02*
X377978Y421623D01*
X380733D02*
X378896D01*
X380733Y423459D01*
Y423918D01*
X380274Y424377D01*
X379355D01*
X378896Y423918D01*
X381877Y431924D02*
X379122D01*
Y433301D01*
X379582Y433760D01*
X380500D01*
X380959Y433301D01*
Y431924D01*
X379122Y434679D02*
X381877D01*
X380959Y435597D01*
X381877Y436515D01*
X379122D01*
X381877Y437434D02*
X379122D01*
Y438811D01*
X379582Y439270D01*
X380500D01*
X380959Y438811D01*
Y437434D01*
Y438352D02*
X381877Y439270D01*
X379122Y442944D02*
Y443862D01*
Y443403D01*
X381877D01*
Y442944D01*
Y443862D01*
Y445240D02*
X379122D01*
X381877Y447076D01*
X379122D01*
X397046Y376122D02*
Y378877D01*
X398424D01*
X398883Y378418D01*
Y377500D01*
X398424Y377041D01*
X397046D01*
X399801Y378877D02*
Y376122D01*
X400719Y377041D01*
X401638Y376122D01*
Y378877D01*
X402556Y376122D02*
Y378877D01*
X403934D01*
X404393Y378418D01*
Y377500D01*
X403934Y377041D01*
X402556D01*
X403475D02*
X404393Y376122D01*
X408066Y378877D02*
X408985D01*
X408525D01*
Y376122D01*
X408066D01*
X408985D01*
X410362D02*
Y378877D01*
X412199Y376122D01*
Y378877D01*
X414954Y376122D02*
X413117D01*
X414954Y377959D01*
Y378418D01*
X414495Y378877D01*
X413576D01*
X413117Y378418D01*
X490163Y434877D02*
Y432123D01*
X492000D01*
X492918D02*
X493837D01*
X493377D01*
Y434877D01*
X492918Y434418D01*
X312204Y441878D02*
Y439122D01*
X313582D01*
X314041Y439582D01*
Y441418D01*
X313582Y441878D01*
X312204D01*
X316796Y439122D02*
X314959D01*
X316796Y440959D01*
Y441418D01*
X316337Y441878D01*
X315418D01*
X314959Y441418D01*
X318663Y441377D02*
Y438623D01*
X320041D01*
X320500Y439082D01*
Y440918D01*
X320041Y441377D01*
X318663D01*
X321418Y438623D02*
X322337D01*
X321878D01*
Y441377D01*
X321418Y440918D01*
X337531Y446418D02*
X337072Y446877D01*
X336153D01*
X335694Y446418D01*
Y444582D01*
X336153Y444123D01*
X337072D01*
X337531Y444582D01*
X338449Y444123D02*
Y446877D01*
X340286Y444123D01*
Y446877D01*
X341204Y446418D02*
X341663Y446877D01*
X342582D01*
X343041Y446418D01*
Y445959D01*
X342582Y445500D01*
X342123D01*
X342582D01*
X343041Y445041D01*
Y444582D01*
X342582Y444123D01*
X341663D01*
X341204Y444582D01*
X343959Y446418D02*
X344418Y446877D01*
X345337D01*
X345796Y446418D01*
Y444582D01*
X345337Y444123D01*
X344418D01*
X343959Y444582D01*
Y446418D01*
X346714D02*
X347173Y446877D01*
X348092D01*
X348551Y446418D01*
Y445959D01*
X348092Y445500D01*
X348551Y445041D01*
Y444582D01*
X348092Y444123D01*
X347173D01*
X346714Y444582D01*
Y445041D01*
X347173Y445500D01*
X346714Y445959D01*
Y446418D01*
X347173Y445500D02*
X348092D01*
X349469Y446418D02*
X349928Y446877D01*
X350847D01*
X351306Y446418D01*
Y445959D01*
X350847Y445500D01*
X350388D01*
X350847D01*
X351306Y445041D01*
Y444582D01*
X350847Y444123D01*
X349928D01*
X349469Y444582D01*
X476041Y424418D02*
X475582Y424878D01*
X474663D01*
X474204Y424418D01*
Y422582D01*
X474663Y422122D01*
X475582D01*
X476041Y422582D01*
X478796Y424878D02*
X477878Y424418D01*
X476959Y423500D01*
Y422582D01*
X477418Y422122D01*
X478337D01*
X478796Y422582D01*
Y423041D01*
X478337Y423500D01*
X476959D01*
X499584Y407418D02*
X499125Y407877D01*
X498207D01*
X497748Y407418D01*
Y405582D01*
X498207Y405123D01*
X499125D01*
X499584Y405582D01*
X502339Y407877D02*
X500502D01*
Y406500D01*
X501421Y406959D01*
X501880D01*
X502339Y406500D01*
Y405582D01*
X501880Y405123D01*
X500962D01*
X500502Y405582D01*
X482041Y385918D02*
X481582Y386378D01*
X480663D01*
X480204Y385918D01*
Y384082D01*
X480663Y383623D01*
X481582D01*
X482041Y384082D01*
X484337Y383623D02*
Y386378D01*
X482959Y385000D01*
X484796D01*
X462582Y383541D02*
X462122Y383082D01*
Y382163D01*
X462582Y381704D01*
X464418D01*
X464878Y382163D01*
Y383082D01*
X464418Y383541D01*
X462582Y384459D02*
X462122Y384918D01*
Y385837D01*
X462582Y386296D01*
X463041D01*
X463500Y385837D01*
Y385378D01*
Y385837D01*
X463959Y386296D01*
X464418D01*
X464878Y385837D01*
Y384918D01*
X464418Y384459D01*
X319041Y418418D02*
X318582Y418878D01*
X317663D01*
X317204Y418418D01*
Y416582D01*
X317663Y416122D01*
X318582D01*
X319041Y416582D01*
X321796Y416122D02*
X319959D01*
X321796Y417959D01*
Y418418D01*
X321337Y418878D01*
X320418D01*
X319959Y418418D01*
X378500Y429918D02*
X378041Y430377D01*
X377122D01*
X376663Y429918D01*
Y428082D01*
X377122Y427623D01*
X378041D01*
X378500Y428082D01*
X379418Y427623D02*
X380337D01*
X379877D01*
Y430377D01*
X379418Y429918D01*
X334122Y401827D02*
X336877D01*
Y403204D01*
X336418Y403663D01*
X335959D01*
X335500Y403204D01*
Y401827D01*
Y403204D01*
X335041Y403663D01*
X334582D01*
X334122Y403204D01*
Y401827D01*
X336877Y404582D02*
X335041D01*
X334122Y405500D01*
X335041Y406418D01*
X336877D01*
X335500D01*
Y404582D01*
X334122Y407337D02*
Y409173D01*
Y408255D01*
X336877D01*
M02*
