G04*
G04 #@! TF.GenerationSoftware,Altium Limited,Altium Designer,21.2.0 (30)*
G04*
G04 Layer_Color=16711935*
%FSLAX25Y25*%
%MOIN*%
G70*
G04*
G04 #@! TF.SameCoordinates,9EB53224-002F-4CA6-BEF0-4101847B7537*
G04*
G04*
G04 #@! TF.FilePolarity,Negative*
G04*
G01*
G75*
%ADD46C,0.13855*%
%ADD47C,0.06422*%
%ADD48C,0.06800*%
%ADD49C,0.01181*%
D46*
X402134Y423000D02*
D03*
X453866D02*
D03*
D47*
X414221Y412331D02*
D03*
X424063D02*
D03*
X431937D02*
D03*
X441780D02*
D03*
D48*
X436000Y397500D02*
D03*
X417000D02*
D03*
X387500Y433000D02*
D03*
Y452000D02*
D03*
X436000Y382500D02*
D03*
X417000D02*
D03*
D49*
X506890Y452756D02*
D03*
X501968Y442913D02*
D03*
X506890Y433071D02*
D03*
X501968Y423228D02*
D03*
X497047Y452756D02*
D03*
X492126Y442913D02*
D03*
X487205Y452756D02*
D03*
X482283Y442913D02*
D03*
Y383858D02*
D03*
X477362Y452756D02*
D03*
X472441Y442913D02*
D03*
X477362Y433071D02*
D03*
X472441Y423228D02*
D03*
X467520Y452756D02*
D03*
X462598Y442913D02*
D03*
X467520Y433071D02*
D03*
X462598Y423228D02*
D03*
Y403543D02*
D03*
Y383858D02*
D03*
X457677Y452756D02*
D03*
X452756Y442913D02*
D03*
X457677Y433071D02*
D03*
X452756Y403543D02*
D03*
X457677Y393701D02*
D03*
X447835Y452756D02*
D03*
X442913Y442913D02*
D03*
X447835Y433071D02*
D03*
X442913Y423228D02*
D03*
Y403543D02*
D03*
X447835Y393701D02*
D03*
X437992Y452756D02*
D03*
X433071Y442913D02*
D03*
X437992Y433071D02*
D03*
X433071Y423228D02*
D03*
Y403543D02*
D03*
X428150Y452756D02*
D03*
X423228Y442913D02*
D03*
X428150Y433071D02*
D03*
X423228Y423228D02*
D03*
Y403543D02*
D03*
Y383858D02*
D03*
X418307Y452756D02*
D03*
X413386Y442913D02*
D03*
X418307Y433071D02*
D03*
X413386Y423228D02*
D03*
Y403543D02*
D03*
X408465Y452756D02*
D03*
X403543Y442913D02*
D03*
X408465Y433071D02*
D03*
Y413386D02*
D03*
X403543Y403543D02*
D03*
X408465Y393701D02*
D03*
X403543Y383858D02*
D03*
X398622Y452756D02*
D03*
X393701Y442913D02*
D03*
X398622Y433071D02*
D03*
Y413386D02*
D03*
X393701Y403543D02*
D03*
X398622Y393701D02*
D03*
X393701Y383858D02*
D03*
X383858Y442913D02*
D03*
Y423228D02*
D03*
X388779Y413386D02*
D03*
X383858Y403543D02*
D03*
X388779Y393701D02*
D03*
X383858Y383858D02*
D03*
X374016Y442913D02*
D03*
X378937Y433071D02*
D03*
Y413386D02*
D03*
X374016Y403543D02*
D03*
X378937Y393701D02*
D03*
X374016Y383858D02*
D03*
X364173Y442913D02*
D03*
X369094Y413386D02*
D03*
X364173Y403543D02*
D03*
X369094Y393701D02*
D03*
X364173Y383858D02*
D03*
X354331Y423228D02*
D03*
X359252Y413386D02*
D03*
Y393701D02*
D03*
X349410Y452756D02*
D03*
Y433071D02*
D03*
X344488Y423228D02*
D03*
X349410Y413386D02*
D03*
Y393701D02*
D03*
X339567Y452756D02*
D03*
Y433071D02*
D03*
Y413386D02*
D03*
X334646Y403543D02*
D03*
X339567Y393701D02*
D03*
X334646Y383858D02*
D03*
X329724Y452756D02*
D03*
Y413386D02*
D03*
X324803Y403543D02*
D03*
Y383858D02*
D03*
X319882Y452756D02*
D03*
X314961Y442913D02*
D03*
Y423228D02*
D03*
Y403543D02*
D03*
Y383858D02*
D03*
X331000Y437000D02*
D03*
X324500Y420000D02*
D03*
X477969Y397681D02*
D03*
X497000Y402500D02*
D03*
X502151Y414946D02*
D03*
X504500Y399000D02*
D03*
X470000Y395500D02*
D03*
X485500Y434000D02*
D03*
X487000Y415315D02*
D03*
X490220Y394999D02*
D03*
X492326Y387388D02*
D03*
M02*
