G04*
G04 #@! TF.GenerationSoftware,Altium Limited,Altium Designer,21.2.0 (30)*
G04*
G04 Layer_Color=8388736*
%FSLAX25Y25*%
%MOIN*%
G70*
G04*
G04 #@! TF.SameCoordinates,9EB53224-002F-4CA6-BEF0-4101847B7537*
G04*
G04*
G04 #@! TF.FilePolarity,Negative*
G04*
G01*
G75*
%ADD32R,0.14186X0.06706*%
%ADD33R,0.14580X0.04737*%
%ADD34R,0.07300X0.03000*%
%ADD35R,0.06115X0.05131*%
%ADD36R,0.03950X0.03162*%
%ADD37R,0.06784X0.07414*%
%ADD38R,0.03359X0.03359*%
G04:AMPARAMS|DCode=39|XSize=29.65mil|YSize=27.69mil|CornerRadius=6.46mil|HoleSize=0mil|Usage=FLASHONLY|Rotation=270.000|XOffset=0mil|YOffset=0mil|HoleType=Round|Shape=RoundedRectangle|*
%AMROUNDEDRECTD39*
21,1,0.02965,0.01476,0,0,270.0*
21,1,0.01673,0.02769,0,0,270.0*
1,1,0.01292,-0.00738,-0.00837*
1,1,0.01292,-0.00738,0.00837*
1,1,0.01292,0.00738,0.00837*
1,1,0.01292,0.00738,-0.00837*
%
%ADD39ROUNDEDRECTD39*%
G04:AMPARAMS|DCode=40|XSize=59.18mil|YSize=37.92mil|CornerRadius=7.74mil|HoleSize=0mil|Usage=FLASHONLY|Rotation=180.000|XOffset=0mil|YOffset=0mil|HoleType=Round|Shape=RoundedRectangle|*
%AMROUNDEDRECTD40*
21,1,0.05918,0.02244,0,0,180.0*
21,1,0.04370,0.03792,0,0,180.0*
1,1,0.01548,-0.02185,0.01122*
1,1,0.01548,0.02185,0.01122*
1,1,0.01548,0.02185,-0.01122*
1,1,0.01548,-0.02185,-0.01122*
%
%ADD40ROUNDEDRECTD40*%
%ADD41R,0.05524X0.06706*%
G04:AMPARAMS|DCode=42|XSize=59.18mil|YSize=37.92mil|CornerRadius=7.74mil|HoleSize=0mil|Usage=FLASHONLY|Rotation=270.000|XOffset=0mil|YOffset=0mil|HoleType=Round|Shape=RoundedRectangle|*
%AMROUNDEDRECTD42*
21,1,0.05918,0.02244,0,0,270.0*
21,1,0.04370,0.03792,0,0,270.0*
1,1,0.01548,-0.01122,-0.02185*
1,1,0.01548,-0.01122,0.02185*
1,1,0.01548,0.01122,0.02185*
1,1,0.01548,0.01122,-0.02185*
%
%ADD42ROUNDEDRECTD42*%
%ADD43R,0.05288X0.12808*%
%ADD44R,0.10200X0.07300*%
%ADD45R,0.02000X0.04000*%
%ADD46C,0.13855*%
%ADD47C,0.06422*%
%ADD48C,0.06800*%
%ADD49C,0.01181*%
D32*
X350638Y379811D02*
D03*
Y406189D02*
D03*
D33*
X328000Y389063D02*
D03*
Y396937D02*
D03*
D34*
X331200Y418000D02*
D03*
Y423000D02*
D03*
Y428000D02*
D03*
Y433000D02*
D03*
X359800D02*
D03*
Y428000D02*
D03*
Y423000D02*
D03*
Y418000D02*
D03*
D35*
X372000Y435713D02*
D03*
Y430201D02*
D03*
D36*
X322000Y435500D02*
D03*
Y429791D02*
D03*
X315000Y435500D02*
D03*
Y429791D02*
D03*
D37*
X356614Y452000D02*
D03*
X370000D02*
D03*
D38*
X331000Y441500D02*
D03*
X327063D02*
D03*
X368000Y423000D02*
D03*
X371937D02*
D03*
X466563Y412000D02*
D03*
X470500D02*
D03*
D39*
X316957Y413000D02*
D03*
X320500D02*
D03*
X499000Y410000D02*
D03*
X502543D02*
D03*
X484500Y389500D02*
D03*
X488043D02*
D03*
D40*
X478000Y410453D02*
D03*
Y417500D02*
D03*
D41*
X469732Y403000D02*
D03*
X478000D02*
D03*
X503268Y382090D02*
D03*
X495000D02*
D03*
Y392500D02*
D03*
X503268D02*
D03*
D42*
X475500Y384500D02*
D03*
X468453D02*
D03*
D43*
X485748Y423500D02*
D03*
X494252D02*
D03*
D44*
X489000Y405500D02*
D03*
D45*
X492900Y399700D02*
D03*
X491000D02*
D03*
X489000D02*
D03*
X487000D02*
D03*
X485100D02*
D03*
Y411300D02*
D03*
X487000D02*
D03*
X489000D02*
D03*
X491000D02*
D03*
X492900D02*
D03*
D46*
X402134Y423000D02*
D03*
X453866D02*
D03*
D47*
X414221Y412331D02*
D03*
X424063D02*
D03*
X431937D02*
D03*
X441780D02*
D03*
D48*
X436000Y397500D02*
D03*
X417000D02*
D03*
X387500Y433000D02*
D03*
Y452000D02*
D03*
X436000Y382500D02*
D03*
X417000D02*
D03*
D49*
X506890Y452756D02*
D03*
X501968Y442913D02*
D03*
X506890Y433071D02*
D03*
X501968Y423228D02*
D03*
X497047Y452756D02*
D03*
X492126Y442913D02*
D03*
X487205Y452756D02*
D03*
X482283Y442913D02*
D03*
Y383858D02*
D03*
X477362Y452756D02*
D03*
X472441Y442913D02*
D03*
X477362Y433071D02*
D03*
X472441Y423228D02*
D03*
X467520Y452756D02*
D03*
X462598Y442913D02*
D03*
X467520Y433071D02*
D03*
X462598Y423228D02*
D03*
Y403543D02*
D03*
Y383858D02*
D03*
X457677Y452756D02*
D03*
X452756Y442913D02*
D03*
X457677Y433071D02*
D03*
X452756Y403543D02*
D03*
X457677Y393701D02*
D03*
X447835Y452756D02*
D03*
X442913Y442913D02*
D03*
X447835Y433071D02*
D03*
X442913Y423228D02*
D03*
Y403543D02*
D03*
X447835Y393701D02*
D03*
X437992Y452756D02*
D03*
X433071Y442913D02*
D03*
X437992Y433071D02*
D03*
X433071Y423228D02*
D03*
Y403543D02*
D03*
X428150Y452756D02*
D03*
X423228Y442913D02*
D03*
X428150Y433071D02*
D03*
X423228Y423228D02*
D03*
Y403543D02*
D03*
Y383858D02*
D03*
X418307Y452756D02*
D03*
X413386Y442913D02*
D03*
X418307Y433071D02*
D03*
X413386Y423228D02*
D03*
Y403543D02*
D03*
X408465Y452756D02*
D03*
X403543Y442913D02*
D03*
X408465Y433071D02*
D03*
Y413386D02*
D03*
X403543Y403543D02*
D03*
X408465Y393701D02*
D03*
X403543Y383858D02*
D03*
X398622Y452756D02*
D03*
X393701Y442913D02*
D03*
X398622Y433071D02*
D03*
Y413386D02*
D03*
X393701Y403543D02*
D03*
X398622Y393701D02*
D03*
X393701Y383858D02*
D03*
X383858Y442913D02*
D03*
Y423228D02*
D03*
X388779Y413386D02*
D03*
X383858Y403543D02*
D03*
X388779Y393701D02*
D03*
X383858Y383858D02*
D03*
X374016Y442913D02*
D03*
X378937Y433071D02*
D03*
Y413386D02*
D03*
X374016Y403543D02*
D03*
X378937Y393701D02*
D03*
X374016Y383858D02*
D03*
X364173Y442913D02*
D03*
X369094Y413386D02*
D03*
X364173Y403543D02*
D03*
X369094Y393701D02*
D03*
X364173Y383858D02*
D03*
X354331Y423228D02*
D03*
X359252Y413386D02*
D03*
Y393701D02*
D03*
X349410Y452756D02*
D03*
Y433071D02*
D03*
X344488Y423228D02*
D03*
X349410Y413386D02*
D03*
Y393701D02*
D03*
X339567Y452756D02*
D03*
Y433071D02*
D03*
Y413386D02*
D03*
X334646Y403543D02*
D03*
X339567Y393701D02*
D03*
X334646Y383858D02*
D03*
X329724Y452756D02*
D03*
Y413386D02*
D03*
X324803Y403543D02*
D03*
Y383858D02*
D03*
X319882Y452756D02*
D03*
X314961Y442913D02*
D03*
Y423228D02*
D03*
Y403543D02*
D03*
Y383858D02*
D03*
X331000Y437000D02*
D03*
X324500Y420000D02*
D03*
X477969Y397681D02*
D03*
X497000Y402500D02*
D03*
X502151Y414946D02*
D03*
X504500Y399000D02*
D03*
X470000Y395500D02*
D03*
X485500Y434000D02*
D03*
X487000Y415315D02*
D03*
X490220Y394999D02*
D03*
X492326Y387388D02*
D03*
M02*
