G04*
G04 #@! TF.GenerationSoftware,Altium Limited,Altium Designer,21.2.0 (30)*
G04*
G04 Layer_Physical_Order=1*
G04 Layer_Color=255*
%FSLAX25Y25*%
%MOIN*%
G70*
G04*
G04 #@! TF.SameCoordinates,9EB53224-002F-4CA6-BEF0-4101847B7537*
G04*
G04*
G04 #@! TF.FilePolarity,Positive*
G04*
G01*
G75*
%ADD13C,0.01000*%
%ADD18R,0.13386X0.05906*%
%ADD19R,0.13780X0.03937*%
%ADD20R,0.06500X0.02200*%
%ADD21R,0.05315X0.04331*%
%ADD22R,0.03150X0.02362*%
%ADD23R,0.05984X0.06614*%
%ADD24R,0.02559X0.02559*%
G04:AMPARAMS|DCode=25|XSize=21.65mil|YSize=19.68mil|CornerRadius=2.46mil|HoleSize=0mil|Usage=FLASHONLY|Rotation=270.000|XOffset=0mil|YOffset=0mil|HoleType=Round|Shape=RoundedRectangle|*
%AMROUNDEDRECTD25*
21,1,0.02165,0.01476,0,0,270.0*
21,1,0.01673,0.01968,0,0,270.0*
1,1,0.00492,-0.00738,-0.00837*
1,1,0.00492,-0.00738,0.00837*
1,1,0.00492,0.00738,0.00837*
1,1,0.00492,0.00738,-0.00837*
%
%ADD25ROUNDEDRECTD25*%
G04:AMPARAMS|DCode=26|XSize=51.18mil|YSize=29.92mil|CornerRadius=3.74mil|HoleSize=0mil|Usage=FLASHONLY|Rotation=180.000|XOffset=0mil|YOffset=0mil|HoleType=Round|Shape=RoundedRectangle|*
%AMROUNDEDRECTD26*
21,1,0.05118,0.02244,0,0,180.0*
21,1,0.04370,0.02992,0,0,180.0*
1,1,0.00748,-0.02185,0.01122*
1,1,0.00748,0.02185,0.01122*
1,1,0.00748,0.02185,-0.01122*
1,1,0.00748,-0.02185,-0.01122*
%
%ADD26ROUNDEDRECTD26*%
%ADD27R,0.04724X0.05906*%
G04:AMPARAMS|DCode=28|XSize=51.18mil|YSize=29.92mil|CornerRadius=3.74mil|HoleSize=0mil|Usage=FLASHONLY|Rotation=270.000|XOffset=0mil|YOffset=0mil|HoleType=Round|Shape=RoundedRectangle|*
%AMROUNDEDRECTD28*
21,1,0.05118,0.02244,0,0,270.0*
21,1,0.04370,0.02992,0,0,270.0*
1,1,0.00748,-0.01122,-0.02185*
1,1,0.00748,-0.01122,0.02185*
1,1,0.00748,0.01122,0.02185*
1,1,0.00748,0.01122,-0.02185*
%
%ADD28ROUNDEDRECTD28*%
%ADD29R,0.04488X0.12008*%
%ADD30R,0.09400X0.06500*%
%ADD31R,0.01200X0.03200*%
%ADD50C,0.13055*%
%ADD51C,0.05622*%
%ADD52C,0.06000*%
%ADD53C,0.02362*%
G36*
X513006Y458477D02*
Y373994D01*
X311494Y373994D01*
Y458477D01*
X513006Y458477D01*
D02*
G37*
%LPC*%
G36*
X373992Y456307D02*
X366008D01*
Y447693D01*
X373992D01*
Y450471D01*
X383804D01*
X384006Y449983D01*
X384647Y449147D01*
X385483Y448506D01*
X386456Y448103D01*
X387500Y447965D01*
X388544Y448103D01*
X389517Y448506D01*
X390353Y449147D01*
X390994Y449983D01*
X391397Y450956D01*
X391534Y452000D01*
X391397Y453044D01*
X390994Y454017D01*
X390353Y454853D01*
X389517Y455494D01*
X388544Y455897D01*
X387500Y456035D01*
X386456Y455897D01*
X385483Y455494D01*
X384647Y454853D01*
X384006Y454017D01*
X383804Y453529D01*
X373992D01*
Y456307D01*
D02*
G37*
G36*
X360606D02*
X352622D01*
Y447693D01*
X355085D01*
Y446748D01*
X352919Y444581D01*
X351366Y443029D01*
X333279D01*
Y443780D01*
X324783D01*
Y441383D01*
X321993Y438593D01*
X321662Y438097D01*
X321579Y437681D01*
X319425D01*
Y437029D01*
X317575D01*
Y437681D01*
X312425D01*
Y433319D01*
X317575D01*
Y433971D01*
X319425D01*
Y433319D01*
X324575D01*
Y436033D01*
X324604Y436181D01*
Y436878D01*
X326946Y439221D01*
X329497D01*
X329649Y438721D01*
X329428Y438573D01*
X328945Y437851D01*
X328776Y437000D01*
X328945Y436149D01*
X329312Y435600D01*
X329086Y435100D01*
X326950D01*
Y431321D01*
X324575D01*
Y431972D01*
X319425D01*
Y427610D01*
X324575D01*
Y428262D01*
X326625D01*
X326950Y427937D01*
Y425900D01*
X335450D01*
Y430100D01*
X329166D01*
X328877Y430459D01*
X329066Y430900D01*
X335450D01*
Y435100D01*
X332729D01*
Y435662D01*
X333055Y436149D01*
X333224Y437000D01*
X333055Y437851D01*
X332573Y438573D01*
X332351Y438721D01*
X332503Y439221D01*
X333279D01*
Y439971D01*
X352000D01*
X352585Y440087D01*
X353081Y440419D01*
X354000Y441337D01*
X358971Y436367D01*
Y435100D01*
X355550D01*
Y430900D01*
X364050D01*
Y432937D01*
X366084Y434971D01*
X368342D01*
Y432547D01*
Y430701D01*
X375658D01*
Y432547D01*
Y438878D01*
X368342D01*
Y438029D01*
X365450D01*
X364865Y437913D01*
X364369Y437581D01*
X362491Y435704D01*
X362029Y435896D01*
Y437000D01*
X361913Y437585D01*
X361581Y438081D01*
X356163Y443500D01*
X357696Y445033D01*
X358027Y445529D01*
X358144Y446114D01*
Y447693D01*
X360606D01*
Y456307D01*
D02*
G37*
G36*
X388000Y436969D02*
Y433500D01*
X391469D01*
X391397Y434044D01*
X390994Y435017D01*
X390353Y435853D01*
X389517Y436494D01*
X388544Y436897D01*
X388000Y436969D01*
D02*
G37*
G36*
X387000D02*
X386456Y436897D01*
X385483Y436494D01*
X384647Y435853D01*
X384006Y435017D01*
X383603Y434044D01*
X383531Y433500D01*
X387000D01*
Y436969D01*
D02*
G37*
G36*
X391469Y432500D02*
X388000D01*
Y429031D01*
X388544Y429103D01*
X389517Y429506D01*
X390353Y430147D01*
X390994Y430983D01*
X391397Y431956D01*
X391469Y432500D01*
D02*
G37*
G36*
X387000D02*
X383531D01*
X383603Y431956D01*
X384006Y430983D01*
X384647Y430147D01*
X385483Y429506D01*
X386456Y429103D01*
X387000Y429031D01*
Y432500D01*
D02*
G37*
G36*
X364050Y430100D02*
X360300D01*
Y428500D01*
X364050D01*
Y430100D01*
D02*
G37*
G36*
X359300D02*
X355550D01*
Y428500D01*
X359300D01*
Y430100D01*
D02*
G37*
G36*
X375658Y429701D02*
X372500D01*
Y427035D01*
X375658D01*
Y429701D01*
D02*
G37*
G36*
X371500D02*
X368342D01*
Y427035D01*
X371500D01*
Y429701D01*
D02*
G37*
G36*
X364050Y427500D02*
X360300D01*
Y425900D01*
X364050D01*
Y427500D01*
D02*
G37*
G36*
X359300D02*
X355550D01*
Y425900D01*
X359300D01*
Y427500D01*
D02*
G37*
G36*
X371437Y425280D02*
X365721D01*
Y424529D01*
X364050D01*
Y425100D01*
X355550D01*
Y420900D01*
X364050D01*
Y421471D01*
X365721D01*
Y420720D01*
X371437D01*
Y423000D01*
Y425280D01*
D02*
G37*
G36*
X374217D02*
X372437D01*
Y423500D01*
X374217D01*
Y425280D01*
D02*
G37*
G36*
X454366Y430515D02*
Y423500D01*
X461381D01*
X461285Y424476D01*
X460854Y425895D01*
X460155Y427202D01*
X459215Y428348D01*
X458069Y429289D01*
X456761Y429988D01*
X455342Y430419D01*
X454366Y430515D01*
D02*
G37*
G36*
X402634Y430515D02*
Y423500D01*
X409649D01*
X409552Y424476D01*
X409122Y425895D01*
X408423Y427202D01*
X407482Y428348D01*
X406336Y429289D01*
X405028Y429988D01*
X403610Y430419D01*
X402634Y430515D01*
D02*
G37*
G36*
X401634Y430515D02*
X400658Y430419D01*
X399239Y429988D01*
X397932Y429289D01*
X396785Y428348D01*
X395845Y427202D01*
X395146Y425895D01*
X394715Y424476D01*
X394619Y423500D01*
X401634D01*
Y430515D01*
D02*
G37*
G36*
X453366Y430515D02*
X452390Y430419D01*
X450972Y429988D01*
X449664Y429289D01*
X448518Y428348D01*
X447577Y427202D01*
X446878Y425895D01*
X446448Y424476D01*
X446351Y423500D01*
X453366D01*
Y430515D01*
D02*
G37*
G36*
X374217Y422500D02*
X372437D01*
Y420720D01*
X374217D01*
Y422500D01*
D02*
G37*
G36*
X477500Y420023D02*
X475815D01*
X475279Y419916D01*
X474824Y419613D01*
X474521Y419158D01*
X474455Y418829D01*
X474174Y418678D01*
X474001Y418631D01*
X473918Y418633D01*
X473499Y418913D01*
X472914Y419029D01*
X463586D01*
X463000Y418913D01*
X462504Y418581D01*
X461919Y417996D01*
X461587Y417499D01*
X461471Y416914D01*
Y413860D01*
X445271D01*
X445108Y414253D01*
X444498Y415049D01*
X443702Y415660D01*
X442774Y416044D01*
X441780Y416175D01*
X440785Y416044D01*
X439858Y415660D01*
X439061Y415049D01*
X438451Y414253D01*
X438067Y413326D01*
X437936Y412331D01*
X438067Y411336D01*
X438451Y410409D01*
X439061Y409613D01*
X439858Y409002D01*
X440785Y408618D01*
X441780Y408487D01*
X442774Y408618D01*
X443702Y409002D01*
X444498Y409613D01*
X445108Y410409D01*
X445271Y410801D01*
X462414D01*
X462999Y410918D01*
X463496Y411249D01*
X463784Y411537D01*
X464284Y411330D01*
Y409721D01*
X466063D01*
Y412000D01*
X467063D01*
Y409721D01*
X468971D01*
Y406953D01*
X466370D01*
Y399047D01*
X468471D01*
Y397101D01*
X468428Y397073D01*
X467945Y396351D01*
X467776Y395500D01*
X467945Y394649D01*
X468428Y393928D01*
X469149Y393445D01*
X470000Y393276D01*
X470851Y393445D01*
X471572Y393928D01*
X472055Y394649D01*
X472224Y395500D01*
X472055Y396351D01*
X471572Y397073D01*
X471529Y397101D01*
Y399047D01*
X473095D01*
Y406953D01*
X472029D01*
Y409721D01*
X472780D01*
X472780Y409720D01*
Y409721D01*
X473279Y409735D01*
X473500Y409587D01*
X474086Y409471D01*
X474414D01*
Y409331D01*
X474521Y408795D01*
X474824Y408340D01*
X475279Y408036D01*
X475815Y407930D01*
X476471D01*
Y406953D01*
X474638D01*
Y399047D01*
X475729D01*
X475964Y398606D01*
X475915Y398532D01*
X475745Y397681D01*
X475915Y396830D01*
X476397Y396109D01*
X477118Y395626D01*
X477969Y395457D01*
X478820Y395626D01*
X479542Y396109D01*
X480024Y396830D01*
X480193Y397681D01*
X480024Y398532D01*
X479974Y398606D01*
X480210Y399047D01*
X481362D01*
Y406953D01*
X479529D01*
Y407930D01*
X480185D01*
X480721Y408036D01*
X481176Y408340D01*
X481479Y408795D01*
X481586Y409331D01*
Y411575D01*
X481479Y412111D01*
X481176Y412565D01*
X480721Y412869D01*
X480185Y412976D01*
X475815D01*
X475529Y412919D01*
X475029Y413258D01*
Y414695D01*
X475529Y415034D01*
X475815Y414977D01*
X477500D01*
Y417500D01*
Y420023D01*
D02*
G37*
G36*
X364050Y420100D02*
X360300D01*
Y418500D01*
X364050D01*
Y420100D01*
D02*
G37*
G36*
X359300D02*
X355550D01*
Y418500D01*
X359300D01*
Y420100D01*
D02*
G37*
G36*
X480185Y420023D02*
X478500D01*
Y418000D01*
X481586D01*
Y418622D01*
X481479Y419158D01*
X481176Y419613D01*
X480721Y419916D01*
X480185Y420023D01*
D02*
G37*
G36*
X364050Y417500D02*
X360300D01*
Y415900D01*
X364050D01*
Y417500D01*
D02*
G37*
G36*
X359300D02*
X355550D01*
Y415900D01*
X359300D01*
Y417500D01*
D02*
G37*
G36*
X461381Y422500D02*
X454366D01*
Y415485D01*
X455342Y415581D01*
X456761Y416012D01*
X458069Y416711D01*
X459215Y417652D01*
X460155Y418798D01*
X460854Y420105D01*
X461285Y421524D01*
X461381Y422500D01*
D02*
G37*
G36*
X401634D02*
X394619D01*
X394715Y421524D01*
X395146Y420105D01*
X395845Y418798D01*
X396785Y417652D01*
X397932Y416711D01*
X399239Y416012D01*
X400658Y415581D01*
X401634Y415485D01*
Y422500D01*
D02*
G37*
G36*
X409649D02*
X402634D01*
Y415485D01*
X403610Y415581D01*
X405028Y416012D01*
X406336Y416711D01*
X407482Y417652D01*
X408423Y418798D01*
X409122Y420105D01*
X409552Y421524D01*
X409649Y422500D01*
D02*
G37*
G36*
X453366D02*
X446351D01*
X446448Y421524D01*
X446878Y420105D01*
X447577Y418798D01*
X448518Y417652D01*
X449664Y416711D01*
X450972Y416012D01*
X452390Y415581D01*
X453366Y415485D01*
Y422500D01*
D02*
G37*
G36*
X481586Y417000D02*
X478500D01*
Y414977D01*
X480185D01*
X480721Y415084D01*
X481176Y415387D01*
X481479Y415842D01*
X481586Y416378D01*
Y417000D01*
D02*
G37*
G36*
X317575Y431972D02*
X312425D01*
Y427610D01*
X313792D01*
X313891Y427111D01*
X314223Y426615D01*
X318919Y421918D01*
X319415Y421587D01*
X320000Y421471D01*
X322329D01*
X322565Y421030D01*
X322445Y420851D01*
X322276Y420000D01*
X322445Y419149D01*
X322927Y418428D01*
X323649Y417945D01*
X324500Y417776D01*
X324551Y417786D01*
X325419Y416919D01*
X325490Y416871D01*
X325539Y416373D01*
X323695Y414529D01*
X322274D01*
X322136Y414735D01*
X321724Y415010D01*
X321238Y415107D01*
X319762D01*
X319276Y415010D01*
X318864Y414735D01*
X318593D01*
X318181Y415010D01*
X317695Y415107D01*
X317457D01*
Y413000D01*
Y410893D01*
X317695D01*
X318181Y410990D01*
X318471Y411183D01*
X318886Y411029D01*
X318971Y410962D01*
Y405633D01*
X314919Y401581D01*
X314587Y401085D01*
X314471Y400500D01*
Y392500D01*
X314587Y391915D01*
X314919Y391419D01*
X318356Y387982D01*
X318852Y387650D01*
X319437Y387534D01*
X320110D01*
Y386094D01*
X335890D01*
Y388471D01*
X428000D01*
X428585Y388587D01*
X429081Y388919D01*
X434114Y393952D01*
X434956Y393603D01*
X436000Y393465D01*
X437044Y393603D01*
X438017Y394006D01*
X438853Y394647D01*
X439494Y395483D01*
X439897Y396456D01*
X440034Y397500D01*
X439897Y398544D01*
X439494Y399517D01*
X438853Y400353D01*
X438017Y400994D01*
X437044Y401397D01*
X436000Y401535D01*
X434956Y401397D01*
X433983Y400994D01*
X433147Y400353D01*
X432506Y399517D01*
X432103Y398544D01*
X431965Y397500D01*
X432103Y396456D01*
X432159Y396322D01*
X427366Y391529D01*
X335890D01*
Y392032D01*
X320110D01*
Y391260D01*
X319610Y391053D01*
X317529Y393133D01*
Y399867D01*
X321581Y403919D01*
X321913Y404415D01*
X322029Y405000D01*
Y411193D01*
X322136Y411265D01*
X322274Y411471D01*
X324328D01*
X324914Y411587D01*
X325410Y411919D01*
X329391Y415900D01*
X335450D01*
Y420100D01*
X327405D01*
X327022Y420427D01*
X326943Y420597D01*
X326958Y420821D01*
X327055Y420900D01*
X335450D01*
Y425100D01*
X326950D01*
Y424529D01*
X320634D01*
X317894Y427269D01*
X317575Y427610D01*
X317575D01*
X317575Y427610D01*
Y431972D01*
D02*
G37*
G36*
X316457Y415107D02*
X316218D01*
X315732Y415010D01*
X315320Y414735D01*
X315045Y414323D01*
X314948Y413837D01*
Y413500D01*
X316457D01*
Y415107D01*
D02*
G37*
G36*
X414720Y416109D02*
Y412831D01*
X417999D01*
X417933Y413326D01*
X417549Y414253D01*
X416938Y415049D01*
X416142Y415660D01*
X415215Y416044D01*
X414720Y416109D01*
D02*
G37*
G36*
X432437Y416109D02*
Y412831D01*
X435715D01*
X435650Y413326D01*
X435266Y414253D01*
X434655Y415049D01*
X433859Y415660D01*
X432932Y416044D01*
X432437Y416109D01*
D02*
G37*
G36*
X413721D02*
X413226Y416044D01*
X412298Y415660D01*
X411502Y415049D01*
X410892Y414253D01*
X410507Y413326D01*
X410442Y412831D01*
X413721D01*
Y416109D01*
D02*
G37*
G36*
X423563D02*
X423068Y416044D01*
X422141Y415660D01*
X421345Y415049D01*
X420734Y414253D01*
X420350Y413326D01*
X420285Y412831D01*
X423563D01*
Y416109D01*
D02*
G37*
G36*
X485500Y436224D02*
X484649Y436055D01*
X483927Y435572D01*
X483445Y434851D01*
X483276Y434000D01*
X483445Y433149D01*
X483927Y432428D01*
X483971Y432399D01*
Y430504D01*
X482504D01*
Y416496D01*
X482648D01*
Y413223D01*
X482764Y412637D01*
X483096Y412141D01*
X483471Y411766D01*
Y411400D01*
X483500Y411252D01*
Y409750D01*
X483300D01*
Y401250D01*
X483500D01*
Y397663D01*
X483419Y397581D01*
X483087Y397085D01*
X482971Y396500D01*
Y394348D01*
X481586D01*
X481001Y394232D01*
X480504Y393900D01*
X479919Y393315D01*
X479587Y392818D01*
X479471Y392233D01*
Y391697D01*
X475860Y388086D01*
X474378D01*
X473842Y387979D01*
X473387Y387676D01*
X473084Y387221D01*
X472977Y386685D01*
Y382315D01*
X473084Y381779D01*
X473387Y381324D01*
X473842Y381021D01*
X473971Y380995D01*
Y380444D01*
X469773D01*
X469724Y380944D01*
X470111Y381021D01*
X470565Y381324D01*
X470869Y381779D01*
X470976Y382315D01*
Y384000D01*
X468453D01*
X465930D01*
Y382315D01*
X466036Y381779D01*
X466340Y381324D01*
X466795Y381021D01*
X467182Y380944D01*
X467133Y380444D01*
X458560D01*
X455422Y383581D01*
X454926Y383913D01*
X454341Y384029D01*
X439696D01*
X439494Y384517D01*
X438853Y385353D01*
X438017Y385994D01*
X437044Y386397D01*
X436000Y386535D01*
X434956Y386397D01*
X433983Y385994D01*
X433147Y385353D01*
X432506Y384517D01*
X432103Y383544D01*
X431965Y382500D01*
X432103Y381456D01*
X432506Y380483D01*
X433147Y379647D01*
X433983Y379006D01*
X434956Y378603D01*
X436000Y378466D01*
X437044Y378603D01*
X438017Y379006D01*
X438853Y379647D01*
X439494Y380483D01*
X439696Y380971D01*
X453707D01*
X456845Y377833D01*
X457341Y377501D01*
X457927Y377385D01*
X474914D01*
X475499Y377501D01*
X475996Y377833D01*
X476581Y378419D01*
X476913Y378915D01*
X477029Y379500D01*
Y380995D01*
X477158Y381021D01*
X477613Y381324D01*
X477916Y381779D01*
X478023Y382315D01*
Y385923D01*
X481991Y389891D01*
X482343Y389802D01*
X482491Y389700D01*
Y388663D01*
X482588Y388177D01*
X482864Y387765D01*
X483276Y387490D01*
X483762Y387393D01*
X484346D01*
X485848Y385891D01*
X490642Y381097D01*
X491138Y380765D01*
X491638Y380666D01*
Y378138D01*
X498362D01*
Y385471D01*
X499905D01*
Y378138D01*
X506630D01*
Y386043D01*
X504797D01*
Y386414D01*
X504681Y387000D01*
X504349Y387496D01*
X503798Y388047D01*
X503812Y388192D01*
X503966Y388547D01*
X506630D01*
Y392000D01*
X503268D01*
Y393000D01*
X506630D01*
Y396453D01*
X504769D01*
X504578Y396915D01*
X505582Y397919D01*
X505913Y398415D01*
X506029Y399000D01*
X505913Y399585D01*
X505582Y400081D01*
X505085Y400413D01*
X504500Y400529D01*
X503915Y400413D01*
X503419Y400081D01*
X501966Y398629D01*
X497446D01*
X497254Y399091D01*
X497821Y399658D01*
X498152Y400154D01*
X498265Y400722D01*
X498572Y400927D01*
X499055Y401649D01*
X499224Y402500D01*
X499055Y403351D01*
X498572Y404073D01*
X497851Y404555D01*
X497000Y404724D01*
X496149Y404555D01*
X495428Y404073D01*
X495200Y403732D01*
X494700Y403884D01*
Y409750D01*
X495191Y409771D01*
X496991D01*
Y409163D01*
X497088Y408677D01*
X497364Y408265D01*
X497776Y407990D01*
X498262Y407893D01*
X499738D01*
X500224Y407990D01*
X500636Y408265D01*
X500907D01*
X501319Y407990D01*
X501805Y407893D01*
X502043D01*
Y410000D01*
Y412107D01*
X501805D01*
X501319Y412010D01*
X500907Y411735D01*
X500636D01*
X500224Y412010D01*
X499738Y412107D01*
X499154D01*
X498880Y412381D01*
X498384Y412713D01*
X497798Y412829D01*
X494500D01*
Y413417D01*
X500550D01*
X500579Y413374D01*
X501300Y412892D01*
X502151Y412722D01*
X503003Y412892D01*
X503724Y413374D01*
X504206Y414095D01*
X504375Y414946D01*
X504206Y415797D01*
X503724Y416519D01*
X503003Y417001D01*
X502151Y417170D01*
X501300Y417001D01*
X500579Y416519D01*
X500550Y416475D01*
X497988D01*
X497496Y416496D01*
Y430504D01*
X491008D01*
Y418159D01*
X489492Y416643D01*
X488992Y416850D01*
Y430504D01*
X487029D01*
Y432399D01*
X487073Y432428D01*
X487555Y433149D01*
X487724Y434000D01*
X487555Y434851D01*
X487073Y435572D01*
X486351Y436055D01*
X485500Y436224D01*
D02*
G37*
G36*
X316457Y412500D02*
X314948D01*
Y412163D01*
X315045Y411677D01*
X315320Y411265D01*
X315732Y410990D01*
X316218Y410893D01*
X316457D01*
Y412500D01*
D02*
G37*
G36*
X503281Y412107D02*
X503043D01*
Y410500D01*
X504552D01*
Y410837D01*
X504455Y411323D01*
X504180Y411735D01*
X503768Y412010D01*
X503281Y412107D01*
D02*
G37*
G36*
X417999Y411831D02*
X414720D01*
Y408553D01*
X415215Y408618D01*
X416142Y409002D01*
X416938Y409613D01*
X417549Y410409D01*
X417933Y411336D01*
X417999Y411831D01*
D02*
G37*
G36*
X424563Y416109D02*
Y412331D01*
Y408553D01*
X425058Y408618D01*
X425985Y409002D01*
X426781Y409613D01*
X427392Y410409D01*
X427740Y411250D01*
X428000Y411296D01*
X428260Y411250D01*
X428608Y410409D01*
X429219Y409613D01*
X430015Y409002D01*
X430942Y408618D01*
X431437Y408553D01*
Y412331D01*
Y416109D01*
X430942Y416044D01*
X430015Y415660D01*
X429219Y415049D01*
X428608Y414253D01*
X428260Y413412D01*
X428000Y413365D01*
X427740Y413412D01*
X427392Y414253D01*
X426781Y415049D01*
X425985Y415660D01*
X425058Y416044D01*
X424563Y416109D01*
D02*
G37*
G36*
X435715Y411831D02*
X432437D01*
Y408553D01*
X432932Y408618D01*
X433859Y409002D01*
X434655Y409613D01*
X435266Y410409D01*
X435650Y411336D01*
X435715Y411831D01*
D02*
G37*
G36*
X423563D02*
X420285D01*
X420350Y411336D01*
X420734Y410409D01*
X421345Y409613D01*
X422141Y409002D01*
X423068Y408618D01*
X423563Y408553D01*
Y411831D01*
D02*
G37*
G36*
X413721D02*
X410442D01*
X410507Y411336D01*
X410892Y410409D01*
X411502Y409613D01*
X412298Y409002D01*
X413226Y408618D01*
X413721Y408553D01*
Y411831D01*
D02*
G37*
G36*
X504552Y409500D02*
X503043D01*
Y407893D01*
X503281D01*
X503768Y407990D01*
X504180Y408265D01*
X504455Y408677D01*
X504552Y409163D01*
Y409500D01*
D02*
G37*
G36*
X358331Y410142D02*
X351138D01*
Y406689D01*
X358331D01*
Y410142D01*
D02*
G37*
G36*
X350138D02*
X342945D01*
Y406689D01*
X350138D01*
Y410142D01*
D02*
G37*
G36*
X358331Y405689D02*
X351138D01*
Y402236D01*
X358331D01*
Y405689D01*
D02*
G37*
G36*
X350138D02*
X342945D01*
Y402236D01*
X350138D01*
Y405689D01*
D02*
G37*
G36*
X417500Y401469D02*
Y398000D01*
X420969D01*
X420897Y398544D01*
X420494Y399517D01*
X419853Y400353D01*
X419017Y400994D01*
X418044Y401397D01*
X417500Y401469D01*
D02*
G37*
G36*
X416500D02*
X415956Y401397D01*
X414983Y400994D01*
X414147Y400353D01*
X413506Y399517D01*
X413103Y398544D01*
X413031Y398000D01*
X416500D01*
Y401469D01*
D02*
G37*
G36*
X335890Y399905D02*
X328500D01*
Y397437D01*
X335890D01*
Y399905D01*
D02*
G37*
G36*
X327500D02*
X320110D01*
Y397437D01*
X327500D01*
Y399905D01*
D02*
G37*
G36*
X335890Y396437D02*
X328500D01*
Y393969D01*
X335890D01*
Y396437D01*
D02*
G37*
G36*
X327500D02*
X320110D01*
Y393969D01*
X327500D01*
Y396437D01*
D02*
G37*
G36*
X420969Y397000D02*
X417500D01*
Y393531D01*
X418044Y393603D01*
X419017Y394006D01*
X419853Y394647D01*
X420494Y395483D01*
X420897Y396456D01*
X420969Y397000D01*
D02*
G37*
G36*
X416500D02*
X413031D01*
X413103Y396456D01*
X413506Y395483D01*
X414147Y394647D01*
X414983Y394006D01*
X415956Y393603D01*
X416500Y393531D01*
Y397000D01*
D02*
G37*
G36*
X469575Y388086D02*
X468953D01*
Y385000D01*
X470976D01*
Y386685D01*
X470869Y387221D01*
X470565Y387676D01*
X470111Y387979D01*
X469575Y388086D01*
D02*
G37*
G36*
X467953D02*
X467331D01*
X466795Y387979D01*
X466340Y387676D01*
X466036Y387221D01*
X465930Y386685D01*
Y385000D01*
X467953D01*
Y388086D01*
D02*
G37*
G36*
X417500Y386469D02*
Y383000D01*
X420969D01*
X420897Y383544D01*
X420494Y384517D01*
X419853Y385353D01*
X419017Y385994D01*
X418044Y386397D01*
X417500Y386469D01*
D02*
G37*
G36*
X416500D02*
X415956Y386397D01*
X414983Y385994D01*
X414147Y385353D01*
X413506Y384517D01*
X413103Y383544D01*
X413031Y383000D01*
X416500D01*
Y386469D01*
D02*
G37*
G36*
X358331Y383764D02*
X351138D01*
Y380311D01*
X358331D01*
Y383764D01*
D02*
G37*
G36*
X350138D02*
X342945D01*
Y380311D01*
X350138D01*
Y383764D01*
D02*
G37*
G36*
X420969Y382000D02*
X417500D01*
Y378531D01*
X418044Y378603D01*
X419017Y379006D01*
X419853Y379647D01*
X420494Y380483D01*
X420897Y381456D01*
X420969Y382000D01*
D02*
G37*
G36*
X416500D02*
X413031D01*
X413103Y381456D01*
X413506Y380483D01*
X414147Y379647D01*
X414983Y379006D01*
X415956Y378603D01*
X416500Y378531D01*
Y382000D01*
D02*
G37*
G36*
X358331Y379311D02*
X351138D01*
Y375858D01*
X358331D01*
Y379311D01*
D02*
G37*
G36*
X350138D02*
X342945D01*
Y375858D01*
X350138D01*
Y379311D01*
D02*
G37*
%LPD*%
D13*
X428000Y390000D02*
X435500Y397500D01*
X328000Y389063D02*
X328937Y390000D01*
X428000D01*
X316000Y392500D02*
X319437Y389063D01*
X328000D01*
X316000Y392500D02*
Y400500D01*
X320500Y405000D01*
Y413000D01*
X326500Y418000D02*
X329050D01*
X324328Y413000D02*
X328450Y417122D01*
Y417400D01*
X329050Y418000D01*
X320500Y413000D02*
X324328D01*
X329050Y418000D02*
X331200D01*
X331000Y437000D02*
X331200Y436800D01*
Y433000D02*
Y436800D01*
X324500Y420000D02*
X326500Y418000D01*
X435500Y397500D02*
X436000D01*
X370000Y452000D02*
X387500D01*
X320000Y423000D02*
X331200D01*
X315304Y427696D02*
X320000Y423000D01*
X323075Y437512D02*
X327063Y441500D01*
X322000Y435500D02*
X322394D01*
X315000Y429791D02*
X315304Y429487D01*
Y427696D02*
Y429487D01*
X315000Y435500D02*
X322000D01*
X359800Y423000D02*
X368000D01*
X327259Y429791D02*
X329050Y428000D01*
X331200D01*
X356614Y446114D02*
Y452000D01*
X359900Y433000D02*
X361950D01*
X365450Y436500D02*
X372000D01*
X361950Y433000D02*
X365450Y436500D01*
X352000Y441500D02*
X354000Y443500D01*
X360500Y437000D01*
Y433600D02*
Y437000D01*
X359800Y433000D02*
X359900D01*
X360500Y433600D01*
X331000Y441500D02*
X352000D01*
X354000Y443500D02*
X356614Y446114D01*
X322394Y435500D02*
X323075Y436181D01*
X322000Y429791D02*
X327259D01*
X323075Y436181D02*
Y437512D01*
X463000Y412917D02*
Y416914D01*
X463586Y417500D01*
X472914D02*
X473500Y416914D01*
Y411586D02*
Y416914D01*
X463586Y417500D02*
X472914D01*
X462414Y412331D02*
X463000Y412917D01*
X441780Y412331D02*
X462414D01*
X497798Y411300D02*
X499000Y410098D01*
X492900Y411300D02*
X497798D01*
X499000Y410000D02*
Y410098D01*
X492900Y399700D02*
X495700D01*
X496739Y400739D02*
Y402239D01*
X497000Y402500D01*
X495700Y399700D02*
X496739Y400739D01*
X477969Y397681D02*
Y402969D01*
X474914Y378914D02*
X475500Y379500D01*
X454341Y382500D02*
X457927Y378914D01*
X436000Y382500D02*
X454341D01*
X475500Y379500D02*
Y384500D01*
X457927Y378914D02*
X474914D01*
X481000Y392233D02*
X481586Y392819D01*
X481000Y391063D02*
Y392233D01*
X481586Y392819D02*
X484500D01*
X475500Y384500D02*
Y385563D01*
X481000Y391063D01*
X487000Y394000D02*
X488086Y392914D01*
X484500Y389402D02*
X486929Y386972D01*
X484500Y389402D02*
Y389500D01*
X488043D02*
X488282Y389738D01*
X488043Y389500D02*
Y391847D01*
X484500Y389500D02*
Y392819D01*
X488043Y391847D02*
Y392043D01*
X488086Y392086D01*
Y392914D01*
X470500Y403768D02*
Y412000D01*
X469732Y403000D02*
X470000Y402732D01*
X469732Y403000D02*
X470500Y403768D01*
X470000Y395500D02*
Y402732D01*
X477502Y409955D02*
X478000Y409457D01*
X477969Y402969D02*
X478000Y403000D01*
Y409457D01*
X484500Y392819D02*
Y396500D01*
X485100Y397100D01*
Y399700D01*
X487000Y394000D02*
Y399700D01*
X489000Y396588D02*
Y399700D01*
X473500Y411586D02*
X474086Y411000D01*
X477453D01*
X478000Y410453D01*
X484177Y413223D02*
Y421429D01*
Y413223D02*
X485000Y412400D01*
Y411400D02*
Y412400D01*
Y411400D02*
X485100Y411300D01*
X487000D02*
Y415315D01*
X485500Y423248D02*
Y434000D01*
Y423248D02*
X485748Y423000D01*
X484177Y421429D02*
X485748Y423000D01*
X486929Y386972D02*
X491472D01*
X486929D02*
X491724Y382178D01*
X489000Y396588D02*
X490220Y395367D01*
Y394999D02*
Y395367D01*
X491000Y399700D02*
X491100Y399600D01*
Y397886D02*
Y399600D01*
X488043Y391847D02*
X494938D01*
X491100Y397886D02*
X491886Y397100D01*
X491472Y386972D02*
X491628Y387128D01*
X492065D01*
X492326Y387388D01*
X491724Y382178D02*
X494913D01*
X495000Y382090D01*
X494938Y391847D02*
X495000Y391910D01*
Y387586D02*
Y391910D01*
Y387586D02*
X495586Y387000D01*
X491886Y397100D02*
X502600D01*
X495586Y387000D02*
X502682D01*
X503268Y386414D01*
Y382090D02*
Y386414D01*
X502600Y397100D02*
X504500Y399000D01*
X491900Y413900D02*
X492946Y414946D01*
X494252Y419240D02*
Y423000D01*
X492946Y414946D02*
X502151D01*
X489000Y411300D02*
X489100Y411400D01*
Y413194D01*
X489610Y413704D01*
Y414599D01*
X491000Y411300D02*
X491100Y411400D01*
Y413114D01*
X491886Y413900D01*
X491900D01*
X489610Y414599D02*
X494252Y419240D01*
D18*
X350638Y379811D02*
D03*
Y406189D02*
D03*
D19*
X328000Y389063D02*
D03*
Y396937D02*
D03*
D20*
X331200Y418000D02*
D03*
Y423000D02*
D03*
Y428000D02*
D03*
Y433000D02*
D03*
X359800D02*
D03*
Y428000D02*
D03*
Y423000D02*
D03*
Y418000D02*
D03*
D21*
X372000Y435713D02*
D03*
Y430201D02*
D03*
D22*
X322000Y435500D02*
D03*
Y429791D02*
D03*
X315000Y435500D02*
D03*
Y429791D02*
D03*
D23*
X356614Y452000D02*
D03*
X370000D02*
D03*
D24*
X331000Y441500D02*
D03*
X327063D02*
D03*
X368000Y423000D02*
D03*
X371937D02*
D03*
X466563Y412000D02*
D03*
X470500D02*
D03*
D25*
X316957Y413000D02*
D03*
X320500D02*
D03*
X499000Y410000D02*
D03*
X502543D02*
D03*
X484500Y389500D02*
D03*
X488043D02*
D03*
D26*
X478000Y410453D02*
D03*
Y417500D02*
D03*
D27*
X469732Y403000D02*
D03*
X478000D02*
D03*
X503268Y382090D02*
D03*
X495000D02*
D03*
Y392500D02*
D03*
X503268D02*
D03*
D28*
X475500Y384500D02*
D03*
X468453D02*
D03*
D29*
X485748Y423500D02*
D03*
X494252D02*
D03*
D30*
X489000Y405500D02*
D03*
D31*
X492900Y399700D02*
D03*
X491000D02*
D03*
X489000D02*
D03*
X487000D02*
D03*
X485100D02*
D03*
Y411300D02*
D03*
X487000D02*
D03*
X489000D02*
D03*
X491000D02*
D03*
X492900D02*
D03*
D50*
X402134Y423000D02*
D03*
X453866D02*
D03*
D51*
X414221Y412331D02*
D03*
X424063D02*
D03*
X431937D02*
D03*
X441780D02*
D03*
D52*
X436000Y397500D02*
D03*
X417000D02*
D03*
X387500Y433000D02*
D03*
Y452000D02*
D03*
X436000Y382500D02*
D03*
X417000D02*
D03*
D53*
X506890Y452756D02*
D03*
X501968Y442913D02*
D03*
X506890Y433071D02*
D03*
X501968Y423228D02*
D03*
X497047Y452756D02*
D03*
X492126Y442913D02*
D03*
X487205Y452756D02*
D03*
X482283Y442913D02*
D03*
Y383858D02*
D03*
X477362Y452756D02*
D03*
X472441Y442913D02*
D03*
X477362Y433071D02*
D03*
X472441Y423228D02*
D03*
X467520Y452756D02*
D03*
X462598Y442913D02*
D03*
X467520Y433071D02*
D03*
X462598Y423228D02*
D03*
Y403543D02*
D03*
Y383858D02*
D03*
X457677Y452756D02*
D03*
X452756Y442913D02*
D03*
X457677Y433071D02*
D03*
X452756Y403543D02*
D03*
X457677Y393701D02*
D03*
X447835Y452756D02*
D03*
X442913Y442913D02*
D03*
X447835Y433071D02*
D03*
X442913Y423228D02*
D03*
Y403543D02*
D03*
X447835Y393701D02*
D03*
X437992Y452756D02*
D03*
X433071Y442913D02*
D03*
X437992Y433071D02*
D03*
X433071Y423228D02*
D03*
Y403543D02*
D03*
X428150Y452756D02*
D03*
X423228Y442913D02*
D03*
X428150Y433071D02*
D03*
X423228Y423228D02*
D03*
Y403543D02*
D03*
Y383858D02*
D03*
X418307Y452756D02*
D03*
X413386Y442913D02*
D03*
X418307Y433071D02*
D03*
X413386Y423228D02*
D03*
Y403543D02*
D03*
X408465Y452756D02*
D03*
X403543Y442913D02*
D03*
X408465Y433071D02*
D03*
Y413386D02*
D03*
X403543Y403543D02*
D03*
X408465Y393701D02*
D03*
X403543Y383858D02*
D03*
X398622Y452756D02*
D03*
X393701Y442913D02*
D03*
X398622Y433071D02*
D03*
Y413386D02*
D03*
X393701Y403543D02*
D03*
X398622Y393701D02*
D03*
X393701Y383858D02*
D03*
X383858Y442913D02*
D03*
Y423228D02*
D03*
X388779Y413386D02*
D03*
X383858Y403543D02*
D03*
X388779Y393701D02*
D03*
X383858Y383858D02*
D03*
X374016Y442913D02*
D03*
X378937Y433071D02*
D03*
Y413386D02*
D03*
X374016Y403543D02*
D03*
X378937Y393701D02*
D03*
X374016Y383858D02*
D03*
X364173Y442913D02*
D03*
X369094Y413386D02*
D03*
X364173Y403543D02*
D03*
X369094Y393701D02*
D03*
X364173Y383858D02*
D03*
X354331Y423228D02*
D03*
X359252Y413386D02*
D03*
Y393701D02*
D03*
X349410Y452756D02*
D03*
Y433071D02*
D03*
X344488Y423228D02*
D03*
X349410Y413386D02*
D03*
Y393701D02*
D03*
X339567Y452756D02*
D03*
Y433071D02*
D03*
Y413386D02*
D03*
X334646Y403543D02*
D03*
X339567Y393701D02*
D03*
X334646Y383858D02*
D03*
X329724Y452756D02*
D03*
Y413386D02*
D03*
X324803Y403543D02*
D03*
Y383858D02*
D03*
X319882Y452756D02*
D03*
X314961Y442913D02*
D03*
Y423228D02*
D03*
Y403543D02*
D03*
Y383858D02*
D03*
X331000Y437000D02*
D03*
X324500Y420000D02*
D03*
X477969Y397681D02*
D03*
X497000Y402500D02*
D03*
X502151Y414946D02*
D03*
X504500Y399000D02*
D03*
X470000Y395500D02*
D03*
X485500Y434000D02*
D03*
X487000Y415315D02*
D03*
X490220Y394999D02*
D03*
X492326Y387388D02*
D03*
M02*
