M48
;Layer_Color=9474304
;FILE_FORMAT=2:5
INCH,LZ
;TYPE=PLATED
T1F00S00C0.01181
T2F00S00C0.03000
T3F00S00C0.03622
T4F00S00C0.09055
%
T01
X0314961Y0383858
X0324803
X0334646
X0339567Y0393701
X034941
X0359252
X0369094
X0378937
X0388779
X0398622
X0408465
X0413386Y0403543
X0423228
X0433071
X0442913
X0452756
X0462598
X0457677Y0393701
X0447835
X0462598Y0383858
Y0423228
X046752Y0433071
X0457677
X0447835
X0437992
X042815
X0418307
X0408465
X0398622
X0403543Y0442913
X0413386
X0423228
X0433071
X0442913
X0452756
X0462598
X046752Y0452756
X0457677
X0447835
X0437992
X042815
X0418307
X0408465
X0398622
X0393701Y0442913
X0383858
X0374016
X0364173
X0378937Y0433071
X0383858Y0423228
X0388779Y0413386
X0398622
X0408465
X0413386Y0423228
X0423228
X0433071
X0442913
X0423228Y0383858
X0403543
X0393701
X0383858
X0374016
X0364173
Y0403543
X0374016
X0383858
X0393701
X0403543
X0378937Y0413386
X0369094
X0359252
X034941
X0339567
X0329724
X03245Y042
X0314961Y0423228
Y0442913
X0319882Y0452756
X0329724
X0339567
X034941
Y0433071
X0339567
X0331Y0437
X0344488Y0423228
X0354331
X0334646Y0403543
X0324803
X0314961
X047Y03955
X0477969Y0397681
X049022Y0394999
X0492326Y0387388
X0482283Y0383858
X0497Y04025
X05045Y0399
X0502151Y0414946
X0501968Y0423228
X050689Y0433071
X0501968Y0442913
X0492126
X0482283
X0472441
X0477362Y0452756
X0487205
X0497047
X050689
X04855Y0434
X0477362Y0433071
X0472441Y0423228
X0487Y0415315
T02
X0417Y03825
Y03975
X0436
Y03825
X03875Y0433
Y0452
T03
X0414221Y0412331
X0424063
X0431937
X044178
T04
X0402134Y0423
X0453866
M30
