G04*
G04 #@! TF.GenerationSoftware,Altium Limited,Altium Designer,21.2.0 (30)*
G04*
G04 Layer_Color=32768*
%FSLAX25Y25*%
%MOIN*%
G70*
G04*
G04 #@! TF.SameCoordinates,9EB53224-002F-4CA6-BEF0-4101847B7537*
G04*
G04*
G04 #@! TF.FilePolarity,Positive*
G04*
G01*
G75*
%ADD17C,0.00394*%
%ADD54C,0.00197*%
G36*
X394535Y464535D02*
X461465D01*
Y406858D01*
X394535D01*
Y464535D01*
D02*
G37*
D17*
X372000Y430988D02*
Y434925D01*
X370031Y432957D02*
X373969D01*
X321016Y432646D02*
X322984D01*
X322000Y431661D02*
Y433630D01*
X363307Y450032D02*
Y453968D01*
X361339Y452000D02*
X365276D01*
X327949Y441500D02*
X330114D01*
X329031Y440417D02*
Y442583D01*
X368886Y423000D02*
X371051D01*
X369969Y421917D02*
Y424083D01*
X314016Y432646D02*
X315984D01*
X315000Y431661D02*
Y433630D01*
X473866Y401031D02*
Y404969D01*
X471898Y403000D02*
X475835D01*
X468532Y410917D02*
Y413083D01*
X467449Y412000D02*
X469614D01*
X499134Y380122D02*
Y384059D01*
X497165Y382090D02*
X501102D01*
X497165Y392500D02*
X501102D01*
X499134Y390531D02*
Y394468D01*
D54*
X325638Y410126D02*
X358315D01*
X325638Y399890D02*
Y410126D01*
X320126Y399890D02*
X325638D01*
X320126Y386110D02*
Y399890D01*
Y386110D02*
X325638D01*
Y375874D02*
Y386110D01*
Y375874D02*
X358315D01*
Y410126D01*
X368653Y438272D02*
X375346D01*
X368653Y427642D02*
X375346D01*
Y438272D01*
X368653Y427642D02*
Y438272D01*
X320031Y437075D02*
X323969D01*
Y428217D02*
Y437075D01*
X320031Y428217D02*
X323969D01*
X320031D02*
Y437075D01*
X353228Y457905D02*
X373386D01*
X373386Y446095D02*
Y457905D01*
X353228Y446095D02*
X373386D01*
X353228D02*
Y457905D01*
X333165Y439335D02*
Y443665D01*
X324898Y439335D02*
Y443665D01*
Y439335D02*
X333165D01*
X324898Y443665D02*
X333165D01*
X365835Y420835D02*
Y425165D01*
X374102Y420835D02*
Y425165D01*
X365835D02*
X374102D01*
X365835Y420835D02*
X374102D01*
X313032Y437075D02*
X316968D01*
Y428217D02*
Y437075D01*
X313032Y428217D02*
X316968D01*
X313032D02*
Y437075D01*
X465402Y407921D02*
X482331D01*
X465402Y398079D02*
X482331D01*
X465402D02*
Y407921D01*
X482331Y398079D02*
Y407921D01*
X464398Y414165D02*
X472665D01*
X464398Y409835D02*
X472665D01*
X464398D02*
Y414165D01*
X472665Y409835D02*
Y414165D01*
X490669Y377169D02*
X507598D01*
X490669Y387012D02*
X507598D01*
Y377169D02*
Y387012D01*
X490669Y377169D02*
Y387012D01*
Y387579D02*
Y397421D01*
X507598Y387579D02*
Y397421D01*
X490669D02*
X507598D01*
X490669Y387579D02*
X507598D01*
M02*
